<svg xmlns="http://www.w3.org/2000/svg" id="svg2" viewBox="0 0 240 78.126058" height="78.148" width="240" clip-rule="evenodd" fill-rule="evenodd" image-rendering="optimizeQuality" shape-rendering="geometricPrecision" text-rendering="geometricPrecision"><defs id="defs4"><style id="style6">.str0,.str1{stroke:#fefefe;stroke-width:.899886}.str1{stroke:#234352}.str2{stroke:#fefefe;stroke-width:2.3619}.fil11{fill:none}.fil10{fill:#2b2a29}.fil4{fill:#fefefe}.fil3{fill:#234352}.fil2{fill:#386c82}.fil9{fill:#59c848}.fil6{fill:#f7ec71}.fil5{fill:#fcc729}.fil8{fill:#fe6e26}.fil7{fill:#fe9126}.fil0,.fil1{fill:#fff;fill-rule:nonzero}.fil0{fill:#59c848}</style></defs><g transform="matrix(.63349 0 0 .63349 -85.406 -58.817)" id="g3611"><g id="Слой_x0020_1"><g id="_452714112"><path class="fil0" d="M385 184h-10v18h-4v-18h-10v-5h24v5zm5 14h3s1-1 2-3l3-4-10-12h6l7 8 5-8h5c-2 3-4 7-7 11-1 2-2 3-2 4l-2 2c0 1 0 1-1 1v1c-2 3-4 4-6 4h-3v-4zm46-12v2c0 5-2 7-7 7h-11v7h-5v-23h16c5 0 7 2 7 7zm-4 0c0-2-1-2-3-2h-11v7h11c2 0 3-1 3-3v-2z" id="path11" fill="#59c848" fill-rule="nonzero"/><path class="fil1 str0" d="M324 170l-17-41h-11l-17 41h11l4-9h15l4 9h11zm-19-18h-7l4-9 3 9zm64 18v-41h-10v16h-19v-16h-10v41h10v-16h19v16h10zm49 0v-41h-12l-17 26v-26h-10v41h12l17-26v26h10zm46 0l-16-21 16-20h-13l-13 17v-17h-10v41h10v-17l13 17h13zm49 0l-17-41h-10l-18 41h11l4-9h15l4 9h11zm-19-18h-7l4-9 3 9z" id="path13" fill="#234352" fill-rule="nonzero"/><g id="g15"><path class="fil2" d="M256 142c1 4 1 8 1 12 0 24-14 45-34 55 5-3 10-6 14-10-14 3-25-4-36-4-15 1-19 8-41 7-5-4-10-9-13-14 27 5 45-5 68-7 12-1 22 4 34 4l5-12c-1 0-11 1-24 0-9-1-18-4-28-4-11 1-21 7-30 9-15 3-27 3-30 2-1-3-3-7-4-11 16 5 31 3 46-3l-4-6s-10 2-18 2c-11 0-23-2-26-3 0 0 1-10 1-11 16-1 52 7 52 7l22-1 45-12zm-40 69c-6 3-12 4-19 4-8 0-16-2-23-5 15 2 29 2 42 1zm-43-1c-4-2-8-4-12-7l12 7zm82-52c-15-1-31 2-46 7l2-6 44-11v10z" id="path17" fill="#386c82"/><path class="fil3 str1" d="M137 159s13 3 26 3c8 0 17-2 17-2l5 6c-15 6-31 8-47 3 0-3-1-6-1-10z" id="path19" fill="#234352" stroke="#234352" stroke-width=".9"/><path class="fil3 str1" d="M254 173s-10 1-23-1c-9 0-19-4-28-3-11 1-21 7-30 9-17 3-31 2-31 2l5 8c28 6 45-5 69-7 11-1 22 4 33 4l5-12z" id="path21" fill="#234352" stroke="#234352" stroke-width=".9"/><path class="fil3 str1" d="M237 199c-14 3-25-4-35-4-16 1-19 8-43 7l15 8c15 2 29 2 43 1 9-3 15-7 20-12z" id="path23" fill="#234352" stroke="#234352" stroke-width=".9"/><path class="fil4 str0" d="M138 144l42 7 1 8-14-4c0 5-2 6-5 6-4 0-5-3-5-8l-20-5 1-4z" id="path25" fill="#fefefe" stroke="#fefefe" stroke-width=".9"/><path class="fil5" d="M162 107l17 3c-6 0-13-2-20-1-3 0-4 3-6 5-2 1-4 4-5 5 10-1 13-2 25 0 35 4 17 10 50 7 8 0 17-3 25-2-3-4-2-4-6-5-3 0-6-1-9-1l9-2c-1-2-5-6-7-7-12-3-25 4-38 3-6-1-11-4-17-5-2 0-17-3-18 0z" id="path27" fill="#fcc729"/><path class="fil6" d="M162 107c1-3 16 0 18 0 6 1 11 4 17 5 13 1 26-6 38-3-3-4-7-2-13-3 2 0 4-1 5-2-1-3-12-6-15-7-18-5-35-1-51 9 0 2-1 1 1 1z" id="path29" fill="#f7ec71"/><path class="fil7" d="M199 136c4 0 4 1 7 2 1-1 4-1 5-1 9-1 16-4 26-3l11 1c-3 0-7-1-9 0 6 0 10 0 15 1 0-3-2-7-4-9h-7v-1h7l-2-3c-7 0-17 2-25 3-11 1-15-1-25-3-6-1-20-4-25-5-11-1-14 0-24 1l-2 3 9 2c-3 0-8-2-10-1v3h3v1c21 0 23 0 41 8l2 1c2 0 5-1 7 0z" id="path31" fill="#fe9126"/><path class="fil8" d="M149 127c-1 0-2-1-3 0h-2c-1 2-3 5-3 7 5 0 13-2 17 0-3 0-8 0-10 1-5 0-8 0-8 3 12-4 25-2 37 1 1 1 1 1 2 1 3 0 2 0 3 1 3 1 3-1 5-2 1-1 3-2 5-3l-2-1c-18-8-20-8-41-8z" id="path33" fill="#fe6e26"/><path class="fil9" d="M140 138c-1 2-2 4-1 6l41 6 2-5c-4-1-15-4-17-6 4 1 14 2 19 2-1 0-2-1-5-1-1 0-1 0-2-1-12-4-25-5-37-1z" id="path35" fill="#59c848"/><path class="fil9" d="M233 148c0-2-3-2-4-1h-1c-1-2-8-3-10-3s-4 0-5 1c0 1 0 2 1 3v1c1 1 0 1 1 1l18-2z" id="path37" fill="#59c848"/><path class="fil3 str1" d="M257 158c-16-1-31 2-47 6l3-5 44-12v11z" id="path39" fill="#234352" stroke="#234352" stroke-width=".9"/><path class="fil10" d="M192 142l3 1c1 3-1 3 0 7h-4c-2 0-3-1-4-1l-1-1c-1 1 0-1-1 1v1h11v-9c-3 0-3 1-4 1z" id="path41" fill="#2b2a29"/><path class="fil10" d="M192 142l3 1c1 3-1 3 0 7h-4c-2 0-3-1-4-1l-1-1c-1 1 0-1-1 1v1h11v-9c-3 0-3 1-4 1z" id="path43" fill="#2b2a29"/><path class="fil4 str0" d="M197 136c10 0 17 8 17 17 0 10-7 17-17 17-9 0-17-7-17-17 0-9 8-17 17-17z" id="path45" fill="#fefefe" stroke="#fefefe" stroke-width=".9"/><path class="fil3 str0" d="M198 141c5 1 9 3 11 9h-11v-9z" id="path47" fill="#234352" stroke="#fefefe" stroke-width=".9"/><path class="fil3 str0" d="M196 141c-5 1-9 3-11 9h11v-9z" id="path49" fill="#234352" stroke="#fefefe" stroke-width=".9"/><path class="fil4 str0" id="polygon51" fill="#fefefe" stroke="#fefefe" stroke-width=".9" d="M200 136l-2-19-3 19z"/><path class="fil9" d="M207 138c4 4 3 4 10 3 3-1 10-2 13-1-2 0-7 2-10 3l-3 1c3 0 10 1 11 3h1c1 0 4 0 4 1l23-4c0-6-2-6-7-7-2 0-5 0-7-1-2 0-5 1-6 0l3-1c2-1 6 0 9 0l-11-1c-10-1-16 2-25 3-2 0-4 1-5 1z" id="path53" fill="#59c848"/><path class="fil4 str0" d="M256 144l-42 7-1 8 14-4c0 5 2 6 5 6 3-1 5-3 5-8l20-5-1-4z" id="path55" fill="#fefefe" stroke="#fefefe" stroke-width=".9"/><path class="fil4 str0" id="polygon57" fill="#fefefe" stroke="#fefefe" stroke-width=".9" d="M213 145l-4-4 21-1z"/><path class="fil4 str0" id="polygon59" fill="#fefefe" stroke="#fefefe" stroke-width=".9" d="M182 145l3-4-21-1z"/></g><path class="fil11 str2" d="M197 94c34 0 61 27 61 61 0 33-27 60-61 60s-61-27-61-60c0-34 27-61 61-61z" id="path61" fill="none" stroke="#fefefe" stroke-width="2.362"/></g></g></g></svg>