<svg xmlns="http://www.w3.org/2000/svg" preserveAspectRatio="xMidYMid" width="22" height="22" viewBox="0 0 22 22"><style>.cls-1,.cls-2{fill:#fff;fill-rule:evenodd}.cls-2{stroke-linecap:round;stroke-linejoin:round}</style><symbol id="icon-location"><g transform="matrix(.73566 0 0 .73566 -151.272 -67.34)" id="Слой_x0020_1"><path id="path10" d="M223 98c17-2 21 23 3 25-16 2-21-22-3-25zm-16 16c1 7 10 21 16 24 6 4 16-14 19-21 4-12-4-23-15-24-12-1-22 9-20 21z" class="fil0" fill="#59c848"/></g></symbol><symbol id="phone"><g transform="matrix(.71561 0 0 .7099 -283.988 -121.398)" id="Слой_x0020_1"><g id="_451566472"><path id="path11" d="M405 172c-5 1-9 8-8 15 1 5 5 12 8 16s7 8 12 11c7 5 11 4 17 0-1-2-5-5-7-6-7-5-7-3-9-4s-5-6-7-8c-3-5-3-5 0-7h1c0-9-3-12-7-17z" class="fil0" fill="#59c848"/><path id="path13" d="M434 208c-2-2-9-9-13-6 0 1-1 0 1 1l7 4c4 3 5 5 7 6 1-2 0-3-2-5z" class="fil0" fill="#59c848"/><path id="path15" d="M413 189c2 0 3 1 3-5-1-2-1-4-2-6-2-4-2-7-7-7 1 3 6 6 6 18z" class="fil0" fill="#59c848"/></g></g></symbol><symbol id="time"><g id="Слой_x0020_1" transform="matrix(.68064 0 0 .68064 -195.58 -91.498)"><g id="_317775536"><circle class="fil0 str0" cx="311" cy="158" r="21" id="circle11" fill="none" stroke="#59c848" stroke-width="4.724" stroke-linecap="round" stroke-linejoin="round"/><path class="fil0 str0" id="polyline13" fill="none" stroke="#59c848" stroke-width="4.724" stroke-linecap="round" stroke-linejoin="round" d="M311 146v12l13 1"/></g></g></symbol><symbol id="insta"><g id="Слой_x0020_1" transform="translate(-4.24 -1.135) scale(.06664)"><path class="fil0" d="M158 129v93H95v-80-2c-2 0-3 3-5 4h-1v2h-1c0 1-1 1-3 3l-2 3c-1 0-1 0-1 1l-3 4v1c-1 1-1 0-1 1l-1 1c-1 3-1 2-2 4l-1 2-2 6v4c0 3-1 4-1 6v51h98c0 1-1 1-1 2l-1 1-2 1v1c-1 1-4 5-5 5H75c-2 0-4-1-4 2v160c0 2 0 1 1 3 0 0-1 1 0 2v2l4 10v1h1v2h1l3 6 3 3 2 2v1h1c0 2 1 2 2 3l7 6 1 1 7 4 2 1 3 2h2l3 1c2 1 2 1 3 1h1v1h4c1 0 2 1 3 1h91c29 0 57-1 86-1h49l2-1h2l2-1c1 0 3-1 4-1l6-3h1l2-1 2-1 1-1 3-2h1v-1c1 0 2-1 3-2l1-1 4-4c1-1 1 0 1-1h1v-1l6-9h1l1-2 5-12v-3c0-2 1 1 1-5V244c0-1-2-1-3-1h-84c-3 0-3-1-5-3l-3-3v-1s0 1 0 0h-1v-1h-1c0-2 0 0-1-2h86c3 0 9 1 12 0 1-3 0-8 0-12v-6c0-4 0-39-1-41v-3l-1-1c0-2-2-6-3-8l-1-2-4-7c-1 0 0 0-1-1l-1-1c0-1-1-1-1-2h-1c0-2-1-2-1-3h-1l-5-5h-1c-2-2-4-4-6-5-1 0-1 0-1-1h-1l-5-3-3-1-4-2h-3c-2-1-1 0-2-1h-3c-3 0 0-1-8-1h-4c-3 0-8 1-10 1H197l-30-1h-8s-1 1-1 2zm153 75v-44l2-3v-1h1c1-2 1-2 3-3l4-1c1-1 0-1 2-1h39c2 0 1 0 2 1 2 0 1-1 3 0v1c1 0 1 0 2 1l1 1v1l3 3v46c-1 1-2 3-3 4v1l-1 1c-3 2-5 2-8 2h-42l-1-1h-1v-1h-1-1v-2h-1c0-1-1-1-2-2l-1-3zm-159 89c0-1 0-1 1-2v-3-5c0-2 1-2 1-4v-2-1c1-2 0-2 1-4v-2c1-1 1 0 1-2 0-1 0-1 1-2l3-9 2-3 8-12c0-1 0-1 1-1l11-12c2-2 5-4 8-6h1v-1l5-2 1-1h1l1-1 5-2 6-2h1l6-2c1-1 1 0 2-1h6c2-1 3-1 6-1h15c1 0 1 1 4 1h2c1 1 1 0 3 0 1 1 0 1 1 1l3 1h2l3 1 1 1h1l3 1 1 1h1l6 3s0 1 1 1l7 4c1 1 1 1 2 1l3 3v1l13 13 3 4v1h1c0 1 0 1 1 2 0 0-1-1 0 0l6 13c1 2 2 4 2 7 1 1 1 1 1 2v2l1 2c0 1 0 1 1 2 0 1-1 3 0 5 1 1 0 0 0 2 0 3 1 16 0 18-1 3 0 2 0 4-1 1-1 1-1 2v2c-1 2-1 1-1 2 0 2 0 1-1 2 0 1 1 1 0 2-1 2-1 3-1 5h-1l-3 7-1 2v1l-1 1v1h-1l-1 2v1l-3 3v1l-2 3-4 5-10 9c-1 1-1 0-3 2l-8 5h-1v1h-1l-8 4c-1 0-2 1-4 1l-4 2h-2c-1 1-1 0-2 1-3 1-3 0-4 1h-5c-2 0 0 1-5 1h-10c-5 0-2-1-7-1-3 0-2-1-5-1h-2c-1-1-1 0-2-1l-6-2h-1l-17-8v-1h-1l-5-3-3-3-1-1-3-2v-1l-9-9-4-7-1-1s0-1-1-1v-1l-3-5-4-13h-1v-2c0-1 0 0-1-2 0-1 1-1 0-2s0-3-1-4v-10c-1-1-1-1-1-2z" id="path10" fill="#fff"/><path class="fil1 str0" d="M227 237h-1-1c-3 0-1 1-3 1-3 0-1 0-3 1h-1l-11 5c-1 1-1 1-2 1l-1 1-1 1h-1l-1 1-7 7v1c-1 1-3 2-3 3l-1 1c-1 1-1 2-2 3l-3 6-2 4v1l-1 3v2c-1 2-1 0-1 2v3c-1 1-1 0-1 3v10c0 3 0 2 1 3v3c0 2 0 1 1 3 0 2 0 1 1 3 0 0-1 0 0 1 1 3 1 4 3 8l2 3 10 12c1 2 3 2 4 3 1 2 3 3 5 4l2 1 7 3c1 1 1 1 2 1h1c1 1 2 0 3 1l1 1c1 0 2-1 2 0h6c3 0 4 2 7 1 1-1 4-1 6-1h3c1-1 1 0 3-1h1c1 0 1-1 2-1h1l6-3c2-1 4-1 5-2l1-1h1c0-1 0 0 1-1l2-1s0-1 1-1c0 0 0-1 1-1l7-7c1-2 3-3 3-5l2-2v-1l4-9c1 0 0 1 1 0v-2c1-2 0-1 1-3 1-1 0-2 0-3 1-1 1 0 1-2v-4c0-1 1-1 1-3s0-5-1-6v-4-3c-1-1 0-2-1-4-1 0 0 0-1-1v-1-2c-1-1-1 0-1-1l-1-3c-1-2-4-8-6-10l-16-15h-1l-7-4h-1l-4-1v-1h-3c-1-1 0-1-1-1h-3c-1 0 0-1-4-1-2 0-13 0-14 1z" id="path12" fill="none" stroke="#fff" stroke-width=".9"/></g></symbol><symbol id="facebook"><g transform="matrix(.12681 0 0 .12812 -27.372 -4.981)" id="Слой_x0020_1"><path id="path10" d="M338 121c0-1 0-2 1-3 0 0 0 1 0 0s0-2 1-3v-1c1-1 2-2 3-2l4-1h22V79h-33c-6 0-3 1-5 1h-4c-2 0-1 1-3 1h-1c-1 1 1-1 0 0s0 0-1 0c0 1 1 1 0 1h-2c0 1 0 1-1 1l-2 1h-2v1h-1v1l-3 1v1l-4 4c-1 0-1 1-1 1l-5 10v3c-1 1-1 0-1 1v2c0 2-1 1-1 6v4c-1 1 0 20 0 22h-21v34h21v97h39v-96c0-1 1-1 3-1h24s0-1 1-1v-1-4c0-2 0-1 1-3v-3-6c0-4 1-2 1-6s1-3 1-5v-5h-28c-2 0-3 1-3-1v-19z" class="fil0" fill="#fff"/></g></symbol><symbol id="vk"><g transform="matrix(.10727 0 0 .10727 -33.684 -6.798)" id="Слой_x0020_1"><path id="path10" d="M412 184c0 1 2 3 4 4 2 0 1-1 3 0l5 4c1 1 2 3 2 4 1 3 1 2 2 4 1 1 0 2 1 4 1 4 1 3 2 8 0 8-1 16-1 23 0 3-1 3-1 9v1c-1 2-3 7-5 8 0 1 0 0-1 1l-2 1h-1c-1-1 0-1-1-1l-4-3h-1v-1l-2-1v-1l-4-5c-2-2 1 2-1-1l-5-6v-1l-11-21c-1-1-1 0-2-2-1-3-2-2-3-5l-2-6c-1-2-1-1-2-3l-3-8c-1-1-1-2-1-3l-2-2-5-4c-1-1-1-1-3-1h-48c0 1-4 2-5 3-1 2-1 5-1 6 1 4 1 4 2 7 1 1 1 0 1 1l7 15c0 1 0 1 1 2 1 2 0 2 1 3 2 3 3 7 5 9l1 2c1 2 1 2 1 3h1v1l6 11 4 7 1 1 2 5c1 1-1-2 1 0 0 2 0 1 1 3l2 2c1 1 0 2 1 3l15 21c2 5 7 10 10 14l14 15h1l2 4h1c1 1 0 0 2 1l2 2 3 3c5 3 14 8 14 8l3 2c3 1 6 3 11 4 3 0 3 2 7 2 6 0 6 2 13 2 5 0 29 2 33-1l2-1 1-1v-1c2-1 1 0 2-2 0-1 1-3 1-3 1-5-1-14 1-19 1-1 0 0 1-2l1-1 3-5c2-2 4-2 6-2 3 1 7 3 9 5l8 8c2 1 2 2 3 4l8 8c0 1 0 1 1 1l2 2c1 2 4 5 7 6 2 1 1 1 2 1l6 3c5 1 41 1 49 1l8-1c1 0 2-1 3-1l2-2 1-1 1-1c3-4 0-8-1-10 0-1 0-2-1-3l-14-19c-1-1-2-2-3-2-1-1-1-2-2-3l-7-7-2-2c-1 0 0 0-1-1l-5-4v-1l-5-4c-3-3-9-9-7-14l4-7c3-5 11-16 15-21l11-15 2-3 12-19 4-12c1-3-1-6-3-8-5-3-5-2-12-2h-50c-1 1-1 1-1 2-4 2-3 0-5 5l-3 6-1 3v1l-5 9c0 2 0 0-1 2l-2 4v1c-1 2-2 2-3 4-1 3 0 1-1 3-2 2-1 2-2 3l-2 4s-1 0-1 1l-16 22-7 5c-2 1-4-2-5-3 0-1-1 0-2-5 0-5-1-8-1-13l1-18c1-7 0-20 0-28 0-4 0-5-2-7-4-5-8-5-9-6s-1-1-4-1c-3-1-5-1-8-2-7-1-25 0-26 0h-1c-3 1-5 1-8 2-3 0-5 1-7 2l-7 3c-1 0-1 1-1 1l-2 1-1 1s0 1-1 1v1z" class="fil0" fill="#fff"/></g></symbol><symbol id="search-tour"><g transform="translate(-50.979 -470.263) scale(.58637)" id="Слой_x0020_1"><g id="_304515040"><path id="path11" d="M144 913l8-2c2 3 3 4 4 7 2 3 4 5 6 7-9-2-14-8-18-12zm27-3c-2-17 12-31 27-33 39-4 46 56 5 59-17 2-30-11-32-26zm-12-1l5-1 2 10c-4-4-4-4-7-9zm-26-22h13l3 17-10 3c-3-5-6-13-6-20zm32 14l-9 2c-1-6-3-10-2-16h15c-1 5-3 8-4 14zm-9-35l17 2 1 13-21-1 3-14zm25 1c18-1 17-5 18 3-9 1-11 3-19 6l1-9zm-48 14c0-7 2-16 6-20l10 3-3 17h-13zm82-20c2 4 5 9 6 14-5-1-8-3-14-4l-2-7 10-3zm-34-19c3 1 13 12 13 17l-13 1v-18zm-21 17c0-5 10-16 14-17l-1 18-13-1zm41-2c-2-8-6-11-8-14 3 1 7 3 10 5 2 1 6 5 7 7l-9 2zm-57-3c4-3 5-7 18-12l-10 15-8-3zm72 87c5 5 12 17 17 20 12 1 11-8 6-14-3-3-10-11-11-15 8-9 13-23 7-39-4-11-4-1-8-19-7-42-65-59-94-18-19 28-4 75 41 79 7 1 10 6 19 8 11 2 14-1 23-2z" class="fil0"/><path id="path13" d="M186 890c3 1 5-1 8-2 9-3 19 0 24 7 3 5 5 11 3 18-1 3-3 6-2 7 2 5 4 0 5-2 3-5 3-12 1-19-7-23-41-19-39-9z" class="fil0"/></g></g></symbol><symbol id="zagran-tour"><g transform="matrix(.4979 0 0 .4979 -202.176 -398.483)" id="Слой_x0020_1"><path id="path10" d="M532 912c1 1 0 0 2 1h4c0-4-1-6-5-7-2 3-2 4-1 6z" class="fil0"/><path id="path12" d="M496 917c-7-26 34-45 49-15 12 23-18 33-36 26-4-2-12-7-13-11zm99-5l-44 8 1-6 43-2zm-147 0c2-1 19 1 23 1s9 1 13 1c8 0 8-2 9 6l-45-8zm-30-9c-2-1-5-1-8 0-1 6 1 5 15 9 6 1 14 3 20 5-19 16 6 35 18 20 4-5 3-10 1-15 9 3 21 6 30 9 9 2 1 5 11 8 23 5 11 5 32 0 12-3 3-6 12-8 10-3 22-6 30-9-1 5-3 9 1 15 3 3 8 7 15 5 11-3 14-18 4-25 4-2 24-7 28-7 2-2 3-1 6-2 2-10-7-5-14-4-24 4-43 6-67 7l-2-9 39-8c-7-1-30 4-40 4-7-6-9-13-23-15l-4-51v-1c-3 4-2 21-3 26 0 8-1 17-1 26-16 3-17 9-23 15l-41-5 2 2c7 2 30 5 37 8l-1 8c-25 0-51-4-74-8z" class="fil0"/><path id="polygon14" class="fil0" d="M512 913h8v-7h-9z"/><path id="polygon16" class="fil0" d="M522 913h8l1-7h-9z"/><path id="path18" d="M504 912c2 1 3 1 6 0v-6c-2 0-5-1-6 6z" class="fil0"/></g></symbol><symbol id="bus-tour"><g transform="matrix(.57851 0 0 .57851 -453.327 -462.61)" id="Слой_x0020_1"><g id="_450291536"><path id="path11" d="M881 951l3 2c3 0 4 0 5-1-3 1-1 1-2-1 2-3 3-6 8-6v-2l1-1-1-6c-4 5-12 1-14 15z" class="fil0 str0" stroke-width=".9"/><path id="path13" d="M867 945h7l2-1h3c1-5 19-26 20-12l1 4v1l1-6c3 3 6 1 9 5l4-1c2-1 4-1 6-2-3 0-4-2-6-4-2-1-5-3-7-4-18-6-39 6-40 20z" class="fil0 str0" stroke-width=".9"/><path id="path15" d="M879 949l2 2c2-14 10-10 14-15l-1-5c-5 1-7 4-9 7-3 2-4 5-7 8l1 3z" class="fil0 str0" stroke-width=".9"/><path id="path17" d="M890 952c4-2 2-2 5-5v-2c-5 0-5 3-7 7 0 1-2 1 2 0z" class="fil0 str0" stroke-width=".9"/><path id="path19" d="M814 910c3-1 0 0 2-1h2c-1-7 9-33 13-38 5-5 20-7 29-7 5-1 9-1 9 4-13-4-21 2-20 12 1 6 7 7 8-2 0-5 2-10 9-6 0 3-3 11-4 15-2 4-3 12-4 16 3 1 2 1 6 1l-1 2c0-3 6-36 11-38v4l1-2 2 1s1 0 2-1c1-2 17 3 17 6l2 1c3-1 1-4 2-1 4 1 8 2 11 4 1 4 0 20-2 22 0 1 2 1 2 2 1-1 1 0 2-2l2-19c1-1 0-1 2-1l7 4-2 18h-4 3c-1 3 0 1 1 4 3-4-1-2 4-4-1-5 0-13 2-17l7 3-2 14h3l1-12c3 1 4 2 6 3v6l4-3c-2-8-7-10-14-13-6-3-12-6-19-9s-33-15-40-15c-6-1-15-1-21-1-12 2-23 2-27 11-18-8-24 9-20 17 15 4 1-21 18-13-4 14-7 13-10 35z" class="fil0 str0" stroke-width=".9"/><path id="path21" d="M925 932c0 10 18 8 12-12-4 1-4 3-7 6-2 4-1 6-5 6z" class="fil0 str0" stroke-width=".9"/><path id="path23" d="M818 936c-2 9 13 18 15 5-3-1-12-5-15-5z" class="fil0 str0" stroke-width=".9"/><path id="path25" d="M900 937c0 1-2 1 2 1h3c2-1 3-1 5-2-3-4-6-2-9-5l-1 6z" class="fil0 str0" stroke-width=".9"/><path id="path27" d="M838 936c2-4 9-7 16-7 2 5 4 12-3 11-2 0-11-3-13-4zm-22-18c3 0 3 0 4 2 1 1 2 2 3 4s3 5 3 8c-8-1-14-7-10-14zm58-46c0 10 2 18 4 28 0 4 1 4-2 6-2 3-9 9-13 9-1-2 0-6 0-9l1-2c-4 0-3 0-6-1l-2 15c-8 2-27-2-34-6-4-1-2 0-4-3h-1-1c-2 1 1 0-2 1-2 21-2 21 17 28 5 2 31 10 36 7 1-14 22-26 40-20 2 1 5 3 7 4 2 2 3 4 6 4l5-1 3-4c2-4 5-10 11-10l1 7c3 0 5-1 7-3 2-6 1-17 0-24l-4 3c-1 5-3 5-7 3h-3c-3 1-4 1-7 0-5 2-1 0-4 4-1-3-2-1-1-4h-3l-5-2c-1 2-1 1-2 2 0-1-2-1-2-2-3 0-6 0-9-2v-24c-1-3 1 0-2 1l-2-1v23c-5 0-7 0-9-3-1-3-2-6-3-8-2-6-4-12-5-18-1 1-2 1-2 1l-2-1-1 2z" class="fil0 str0" stroke-width=".9"/></g></g></symbol><symbol id="ship-tour"><g transform="matrix(.57851 0 0 .57851 -659.278 -463.19)" id="Слой_x0020_1"><path id="path10" d="M1191 899l-12 5c12 3 47-18 55-23l23-18c8-5 25 7 31 10-2-7-15-13-23-16-9-3-9-2-14 3-3 3-7 6-11 9-10 8-32 26-49 30z" class="fil0"/><path id="path12" d="M1178 923v-4c2-1 3-1 6-1s4-1 7 1c-1 4 2 4-13 4zm14-1v-4l17-4v5c-3 2-14 3-17 3zm19-2v-7l20-6 1 8c-1 1 0 0-2 1l-19 4zm24-5v-9l20-8v11c-4 2-15 5-20 6zm63-45l-10 3c-2 1-5 2-7 3-3 1-4 0-6-2-4-1-12-4-16-4-6 0-4 1-12 8-38 28-65 28-70 32h2v1c3 0 9-1 12-2 13-3 27-8 38-14 7-3 15-8 21-12 2-2 8-7 10-7l15 2h1c-8 2-17 7-24 11-20 8-27 13-49 20-12 4-19 3-31 5-1 5 0 17 1 22h116c5 0 6-2 8-5s4-5 6-9c9-12 15-28 14-43 0-12-10-10-19-9z" class="fil0"/><path id="path14" d="M1217 869c1 0-1-2 5-1 0 2 0 2-2 4s-1 1-4 2l1-5zm38-27l-25 21c-14 11 2-8-33 13-13 8-12 2-13 19l-7 2c4 3 9-1 14-1l10-5c20-12 32-23 50-37 4-3 4-3 7-7 16 1 34 21 37 19-2-4-7-9-11-12-5-3-22-17-29-12z" class="fil0"/></g></symbol><symbol id="russian-tour"><g transform="translate(-868.996 -468.27) scale(.58417)" id="Слой_x0020_1"><path id="path10" d="M1598 937c3 3 11 13 12 15-2 2-4 3-6 5-12-15-26-32-38-47-3-3-11-12-12-15l6-4c2 1 0-1 2 1l11 14c4 5 8 10 13 15 4 5 8 11 12 16zm-20-61c4-4 3-4 6-4l49 61c-1 2-3 4-5 5-3-2-8-8-10-12-7-8-40-48-40-50zm-19 7c1-3 3-4 5-5 3-2 4-3 6-4l2 2-6 5c-3 2-4 3-6 3-1-1 1 0-1-1zm70 60c2-3 4-5 7-8 1-1 2-2 4-3 1-2 2-3 4-5-2-9-6-12-13-21l-15-18c-5-5-9-11-16-16-1-2-6-7-9-7-6-2-8 2-12 5-3-3-12-15-16-18 0 0 0 1-1 3 2 4 13 14 13 17 1 1 0 0 0 1-5-2-1-8-13 2-10 9-6 7-5 13-3 0 0 0-2-1-1-1-2-2-2-3l-13-16c-4-5-9-9-9-13 3-2 1 0 5-2l10-8c1-1 0-1 2-2 2-2-1-1 1-2 4 1 10 11 13 14l1-3c0-3 1-1-1-3-8-11-10-16-23-6-19 14-11 16 8 39 2 3 4 6 6 8-6 9-15 4 3 30 12 18 17 23 31 39 9 9 9 9 28-6 4-2 12-10 14-10z" class="fil0"/></g></symbol><symbol id="perm-tour"><g transform="translate(-1077.545 -468.754) scale(.58417)" id="Слой_x0020_1"><g id="_451593616"><path id="path11" d="M1954 889l10-1-2-1c2-1 13-7 15 0 4-1 11 0 14-2h-5c-3-6-9-10-18-9-7 1-14 7-14 13z" class="fil0 str0" stroke-width=".9"/><path id="path13" d="M1974 871c5 0 8 1 12 4 3 3 5 6 7 10h5c3-1 1 0 2-1-3-2-2-7-8-13l-3-4c-5 1-12 1-15 4z" class="fil0 str0" stroke-width=".9"/><path id="path15" d="M1964 888l13-1c-2-7-13-1-15 0l2 1z" class="fil0 str0" stroke-width=".9"/><path id="path17" d="M1947 920v-8c-7-2-10-16-9-23 0-10 5-18 12-21v-4c2-14-14-14-17-7-1 4 4 90 5 97h7l2-34z" class="fil0 str0" stroke-width=".9"/><path id="path19" d="M1879 848c1 3 5 10 6 13 2 3 2 2 6 3 3 1 5 2 8 2 5 2 26 9 31 9v-11c-1-5-1-4-6-6l-30-14c-8-4-8 1-15 4z" class="fil0 str0" stroke-width=".9"/><path id="path21" d="M1878 900c3 4 5 4 9 9l45-7-1-14c-4-1-24 0-31 0-17 1-11 0-18 7-2 1-3 2-4 5z" class="fil0 str0" stroke-width=".9"/><path id="path23" d="M1911 966c5 2 57 2 60 0 0-4 0-3-4-5-17-6-35-6-51 0-4 2-5 2-5 5z" class="fil0 str0" stroke-width=".9"/><path id="path25" d="M1954 889c0-6 7-12 14-13 9-1 15 3 18 9h7c-2-4-4-7-7-10-4-3-7-4-12-4-4 0-19 4-22 5 0 3 0 5-1 7 0 5-1 5 3 6z" class="fil0 str0" stroke-width=".9"/><path id="path27" d="M1990 867h-1l3 4c6 6 5 11 8 13l3-2c3-3 6-7 7-10-8-7-7-10-20-5z" class="fil0 str0" stroke-width=".9"/><path id="path29" d="M1947 912l3-44c-7 3-12 11-12 21-1 7 2 21 9 23z" class="fil0 str0" stroke-width=".9"/></g></g></symbol><symbol id="rent-ship"><g transform="matrix(.57851 0 0 .57851 -1251.675 -462.505)" id="Слой_x0020_1"><path id="path10" d="M2206 906h-7v4h7v-4zm62 0h7v4h-7v-4zm39 0h7v4h-7v-4zm-10 0h7v4h-7v-4zm-10 0h7v4h-7v-4zm-10 0h8v4h-8v-4zm-19 0h7v4h-7v-4zm-10 0h7v4h-7v-4zm-20 0h7v4h-7v-4zm10 0h7v4h-7v-4zm-20 0h7v4h-7v-4zm-10 0h8v4h-8v-4zm-30 3c5 2 10 8 14 10l8 1 3 4c0-1 0-2-2 1 1 2 1 2 3 4l-1 3v1h129c-1-4 0-6 1-9l3-1c1-4 1-7 3-11 2-6 3-3 2-11h-163v8z" class="fil0"/><path id="path12" d="M2259 885l1 5h-9v-4l4-1h4zm27 0l-1 5c-8-1-12 0-17 0-2 0-2 0-3-1v-4h21zm-11-10h-2l-2 1v1h-2c-5 3 2 4-14 3-9 0-6 0-8 8-4 3-6-2-13 11h53l5-11 3-8h-6l2-3c-2-3-2-1-6-2v-5h-2v5c-2 1-7 1-8 0z" class="fil0"/><path id="path14" d="M2305 895v-8h20c1 1 0 1 1 2v6h-9c-5 1-7 0-12 0zm-4-20c-1 5-2 8-4 11l-2 4-3 7 38 1v-13l-5-14h-21l-3 4z" class="fil0"/></g></symbol><symbol id="insurance"><g transform="translate(-48.82 -644.006) scale(.58417)" id="Слой_x0020_1"><g id="_303124328"><path id="path13" d="M123 1193c0 10-1 45 1 51 7 2 70 0 86 0 6 0 24 2 27-1 3-4 1-42 1-50-7 1-15 4-22 5-9 1-16 1-25 2 0 9-2 9-10 9-9 0-11 0-11-9-8-1-16-1-24-2s-16-4-23-5zm91 38l1 8c9 1 4-3 6-9 4-2 11 3 8-6-3-1-3 0-6 0l-2-1-1-8-5-1c-1 3 0 8-1 9-1 2-5 0-7 1s-2 4-1 5 4 0 6 1c5 1-3-1 1 0l1 1z" class="fil1"/><path id="path15" d="M165 1164c0-7-2-11 6-11 27 0 26-2 26 11h-32zm4 32c2-4-2-8 12-8 13 0 9 4 11 8 13 0 35-3 46-7 0-6 2-21-2-24-5-3-23-1-31-1-2-16 2-19-24-19s-22 3-25 19c-8 0-25-2-31 1-4 3-2 18-2 24 11 4 34 7 46 7z" class="fil1"/><path id="path17" d="M175 1192c-3 9 0 17 10 12 4-3 2-9 1-12h-11z" class="fil1"/></g></g></symbol><symbol id="active-tour"><g transform="translate(-242.14 -635.81) scale(.57734)" id="Слой_x0020_1"><g id="_300800600"><path id="path13" d="M482 1206h35c-3 10 0 23-1 34h-33l-1-4v-30zm47-26c-2 3-7 7-11 9 0 2 1 7-1 9-1 2-6 2-9 1-2-2-2-2-2-6h-15c0 3 0 6-3 7-11 2-9-6-9-12-4-2-7-5-10-8l-1 2c-1 5-1 12-2 16 0 3-1 3-2 5-3 4-2 6-2 12 0 8 0 7 3 12 2 2 2 11 11 16 5 2 2 1 4 3 3 3 10 1 12 1h14c1 0 8 3 11-1 1-1 0 0 2-1 2-2 9-4 12-13 1-3 0-3 3-6v-1c2-2 2-6 2-9 0-5 1-9-2-13-4-5-2-11-4-20l-1-3z" class="fil1"/><path id="path15" d="M500 1184c-7 1-23-4-23-9-1-5 5-18 15-17-4 0-12 6-7 15 4 6 9 8 15 11zm9-30h-20c3-10 18-9 20 0zm-12-12c-8 1-12 5-14 12-1 5-1 1-6 7-2 2-4 4-5 8-2 5-1 6 1 9 9 7 16 11 29 10 8 0 14-3 19-7 8-7 8-8 3-15-4-9-8-7-9-11-1-2 0-2-2-5-2-5-8-10-16-8z" class="fil1"/><path id="path17" d="M575 1233c-1 0-3 1-5 1v-17c5 0 6 1 6 6 0 3 0 7-1 10zm-4 6c7 0 10-3 10-10s0-13-4-16c-3-1-4 0-6-1-5-2-24-1-30-1v9c0 29-4 30 20 30 10-1 9-8 10-11z" class="fil1"/><path id="path19" d="M541 1206h29c0-10-4-11-14-11-11 0-15 0-15 11z" class="fil1"/><path id="path21" d="M487 1235l24 1v-15c-4 5 1 5-7 5-2 1-1 1-2 4h-5c-2-1-1 0-2-2v-2h-5l-3-6v15z" class="fil1"/><path id="path23" d="M493 1222h12l5-11h-21c0 2 3 10 4 11z" class="fil1"/></g></g></symbol><symbol id="school-expeditions"><g transform="translate(-435.703 -623.847) scale(.5669)" id="Слой_x0020_1"><g id="_304329600"><path id="path13" d="M892 1199c1-2 5-4 7-6 3-2 8-1 12-1-1 2-2 2-3 4-2 2-1 1-4 2-4 0-8 1-12 1zm18-11c1-1 2-2 2-4 1-4 0-12-3-14-3 2-4 5-4 9 1 6 2 5 4 9h-10c2-3 4-8 0-11-5 2-3 11-3 11h-3c2-4 3-12-2-14-5 4-3 10-1 14l-18 3 1 5 9-2c-1 3-3 4-5 7 8-4 7-7 13-8h6c-1 2-4 6-5 6-2 2-7 1-10 2l6 9c1 3 4 7 5 9l-53 33h87l4-34-33-15 22-7-10 1c5-6 8-5 16-4 1 0 1-1 1 0l-3 3c-2 1-2 1-3 3 9-4 7-7 19-3l-5 3c12-3 4-3 13-1-5-5-27-9-37-10z" class="fil1"/><path id="path15" d="M828 1175c16-3 29 9 32 22 2 16-9 28-22 31-16 3-28-8-31-21-3-17 8-29 21-32zm16-17c-1 1-2 2-4 1-4 0 1-2-8-1-4 0-2 0-4 1-7 4-10-9-2-9 3 0 16-1 18 1 1 2 1 6 0 7zm5-5c-1-9-9-7-16-7-9 0-16-2-16 8s4 10 13 10c0 4 1 2-5 3-39 11-33 65 5 69 1 3 3 5 6 3 1-1 0-1 1-2s2-1 4-2c10-2 16-7 22-15 12-17 4-46-21-52-7-2-6 0-6-4 3-1 6 1 10-2 3-2 3-5 3-9z" class="fil1"/><path id="path17" d="M936 1168c-3 5-3 6-3 14 1 4 0 4 2 7 2 2 2 4 5 4 2-1 5-10 2-17-2-4-1-8-6-8z" class="fil1"/><path id="path19" d="M830 1203c-2-6 6-8 7-3 2 6-6 7-7 3zm3 19c1-4 2-8 3-11 1-7 4-5 4-10s-3-3-4-9c-1-4-1-8-3-11-1 3-2 7-2 11-1 4 0 3-2 5-3 3-3 7 0 9 2 2 1 0 2 5 1 4 1 7 2 11z" class="fil1"/></g></g></symbol><symbol id="sanatorium"><g transform="matrix(.5633 0 0 .5633 -649.453 -618.97)" id="Слой_x0020_1"><g id="_450277976"><path id="path11" d="M1274 1205c-2 2-3 0-5 2 3 3 3 2 3 8 8-3 1-2 9 0l-1-5c1-1 2-1 3-3-3-3-2 3-7-6-2 2-1 3-2 4z" class="fil0"/><path id="path13" d="M1259 1205c-2 2-2 0-5 2 4 3 4 2 3 8 8-3 2-2 9 0v-5c1-1 1-1 2-3-3-3-2 3-6-6-2 2-1 3-3 4z" class="fil0"/><path id="path15" d="M1285 1207c1 2 2 2 3 3v5c6-3 3-2 9 0-1-7 0-4 2-9-5 0-4 0-7-4l-2 4-5 1z" class="fil0"/><path id="path17" d="M1332 1208v-1l-5-1c-1-3-1-3-2-4-3 4 0 4-7 5 1 2 2 2 3 4 0 1-1 3 0 5 5-3 2-4 8-1 1-5-2-3 3-7z" class="fil0"/><path id="path19" d="M1303 1207c5 6 2 2 2 8 6-2 3-2 9 0 0-5-2-4 3-8-4-2-4 2-7-4l-2 3c-3 0-4 0-5 1z" class="fil0"/><path id="path21" d="M1255 1201c1-2 0-1 2-1h7c14 0 62-1 69 0 1 3 1 15 0 18l-75 1c-4 0-1 0-3-2v-16zm-71-19c6-3 26-28 59-33v12c-18 3-30 10-43 21l-5 5-4 4-2 1v1c-1 2-1 3 0 6 5-4 10-9 16-13 5-3 13-8 20-10 3-2 14-4 18-5v13l-14 3c-2 2-10 3-20 10-6 5-15 11-17 16v1c1 4 0 0 1 2 13-9 29-20 50-21v14c-4 2-14 2-26 7-8 3-18 9-21 15 1 3 0 1 2 3 2-3 16-9 19-10 9-3 16-4 26-4v14c-18 0-26 5-41 7-4 2-3 0-2 5h62l1-1 3-22c2-1 1-1 4-1h4v25l5-1v-24h31v24h4v-24h20c3-1 1 0 2-1 1-2 1-21 0-24-3-2-57-1-65-1l5-33c-3-2-19-15-22-17-12-9-10-10-28-3-11 5-28 18-35 26-6 8-7 7-7 13z" class="fil0"/></g></g></symbol><symbol id="rest"><g transform="matrix(.5728 0 0 .5728 -161.88 -118.848)" id="Слой_x0020_1"><g id="_327156880"><path id="path11" d="M410 311l-3 10c0 3 0 1 1 3 4 0 3-1 5-5 0-3 1-5 2-7l-5-1z" class="fil0"/><path id="path13" d="M370 327c1-5 0-4 14-4 15 0 14-1 15 4h-29zm58-19l-16 19h-8c-2-4 0-6-4-8-3-1-30-1-32 0s-3 6-3 8c-28 2-10-7-35 19-3 2-8 8-6 11 4 5 6 3 9-1 2-2 3-2 4-4 14-17 13-16 25-16-2 6-6 19-6 21l1 2c4 2 5-6 6-10 1-3 2-10 4-13h34c0 4 2 9 3 14 2 10 0 10 5 10 2-5-2-18-3-24 12 0 9 2 20-12 7-8 13-12 10-19-5-1-6 0-8 3z" class="fil0"/><path id="path15" d="M405 277c0-6 10-16 14-18 17-8 22 16 20 25-1 5-6 2-10 1-5-2-22-6-24-8zm7 31c1 1 0 0 2-1 1-2 1-2 3-3 1-1 0 0 1-2v-1c1-2 0-1 1-2 0-3 2-9 4-13 7 1 35 13 38 10 1-4-1-7-1-11l-1-3c-2-3-1-2-4-7-2-3-4-6-6-8-6-7-13-9-17-11 1-5 2-5 1-10h-3l-3 8c-12-1-18-2-29 3-6 2-18 10-17 16 4 2 30 9 37 11-1 7-7 18-6 24z" class="fil0"/><path id="path17" d="M412 308h-1v1c-1 1-1 1-1 2l5 1 2-8c-2 1-2 1-3 3-2 1-1 2-2 1z" class="fil0"/></g></g></symbol><symbol id="train-tickets"><g transform="matrix(.57025 0 0 .57025 -1044.8 -627.875)" id="Слой_x0020_1"><g id="_331529456"><path id="path11" d="M1868 1245h135v-3c-43 0-86-1-129 0h-7c1 1 1 0 1 3z" class="fil0"/><path id="path13" d="M1883 1214c-3 3-9 0-6-5 1-1 3-2 5 0 2 1 2 4 1 5zm-24-5c-1-4 5-5 6-2 2 6-6 7-6 2zm134-12v10h-9c0-2 0-10 1-11 1-3 0-2 3-1 2 1 3 1 5 2zm9 12l-7-1c-2-3 0-6 0-10l7 2v9zm-20-2c-12-1-13 0-8-16 3-1 6 1 9 2l-1 14zm-16-3c-3 0-7-1-10 0 0-4 1-16 3-19 4 1 7 2 9 4 1 4-1 11-2 15zm-12-1l-11-1c0-3 3-18 4-21l10 3-3 19zm-27-4c-1-5 4-18 6-22 4-1 8 1 12 3l-4 21c-4 0-10 0-14-2zm-27-3c-1-6 13-23 17-26l8 3c1 3-5 23-6 25-4 1-16-1-19-2zm-38 3c-1-7 8-19 11-22 12-11 10-12 23-10 17 2 9 3 1 14-5 7-8 14-13 22-6 0-18-1-22-4zm50-39c4-2 12 2 17 4 7 3 12 3 14 10l-33-12c1-1 0-1 2-2zm-41 70h17c10 0 8 0 15-3 5-2 99-1 108-1v-16h-6v-8l6 1c0-4-6-5-9-6-4-1-8-3-12-5l-36-13c-13-5-3-10-17-16-4-1-8-2-12-4-18-8-13 2-24 1-6 0-10 0-15 2h-1l-1 1-8 5c-15 13-35 59-5 62z" class="fil0"/></g></g></symbol><symbol id="plain-tickets"><g transform="translate(-1231.976 -625.23) scale(.56805)" id="Слой_x0020_1"><g id="_326974128"><path id="path13" d="M2210 1204l84-31c4-2 8 0 9 4l15 39c1 4-1 8-4 9l-85 31c-3 2-7 0-9-4l-14-39c-2-4 0-8 4-9zm21 6c-5 4-8 2-12 0l-2-2c4-2 5-1 11 1 1 0 3 0 3 1zm32 0c-1 1-6 2-7 3-2-2-8-8-9-10 5-1 7 1 13 4 1 1 3 2 3 3zm-38 20s1-12 2-13 5-2 6-2c0 2-1 8-2 10-1 3 0 3-1 4l-5 1zm42-9c-2 1-4 1-5 2-10 3-9 3-14 4-7 0-15-3-15-6 0-2 1-5 0-6-2-2-6 3-9 1-1-2 4-3 6-4s5-3 7-1c4 4 8 6 15 4 11-4 21-7 32-11 5-2 11-5 16-2 1 1 1 2 3 2 1 1 2 1 2 3-1 2-6 3-7 3-6 2-11 4-16 6l-15 5zm-3 17l-3 1h-2c1-3 4-16 5-16 3-1 6-2 8-3 0 3-7 15-8 18z"/><path id="path15" d="M2222 1166l85-30c2-1 4-1 6 0s3 3 4 5l15 39c0 2 0 4-1 6s-2 4-4 5l-14 5-1-2 14-6c1 0 3-1 3-3 1-1 1-3 0-4l-14-40-3-3c-1-1-3-1-5 0l-84 31c-2 0-3 1-3 3-1 1-1 3-1 4l1 1 6 17-2 1-7-18c0-2 0-4 1-6 0-2 2-4 4-4v-1z" class="fil2"/><path id="path17" d="M2219 1180c-1 0 98-36 98-36l4 10-98 36-4-10z" class="fil1 str1" stroke-width="2.362"/></g></g></symbol><symbol id="ski"><g transform="matrix(.505 0 0 .48845 -38.069 -903.311)" id="Слой_x0020_1"><path id="path12" d="M205 1975c1 1 0 9-2 10s-2-1-2-2c-5-13 4-9 4-8zm-6-24c-2-3 0-2 1-5s1-3 3-4c2 1 2 1 2 4 1 2 2 3 2 5-3 0-1-1-4-2-2 0-2 2-4 2zm-3 43l-1 32c-1 8-1 9 4 10 3 1 10 1 11-1 3-2-2-51 0-54 3 0 2 8 5 5 1-1 1-1 0-5 0-1-1-3-2-4h-4c-1-33 1-52 2-83 1-15 2-15-7-20-5 0-8 3-9 6-2 4 1 35 1 40 1 20 0 38 0 57-3 1-4-1-5 2-1 2-3 5-1 7 2 1 2 0 3-2 1-3 0-3 3-3v13z" class="fil1"/><path id="path14" d="M169 1951c-1-3 0-2 1-5 1-1 1-4 3-4s2 2 3 4 2 2 1 5c-2 0-1-2-4-2-2 0-1 2-4 2zm-3-38c1 9 1 17 1 26v33c3 0 5 0 7 2l2 1c1 1 2 2 2 3 2 1 2 2 2 3h2c1 3 1 7 4 5 1-2 0-4-1-6-1-4-1-3-5-3-1-29 0-55 2-84 0-6 2-19-10-19-1 1-2 1-3 2l-3 3c-3 5 0 29 0 34z" class="fil1"/><path id="path16" d="M175 1985c0 4 4 6 0 13-1 3-5 6-9 7-1 6-2 26 0 30 3 2 7 2 11 1 5 0 5-2 5-8-1-7-1-17-1-24-1-1-1-3-1-5-1 3-2 3-4 4 1-4 3-7 3-12 0-3-1-8-4-9v3z" class="fil1"/><path id="path18" d="M218 1934c2 2 2 1 2 5v87c0 2-2 0-3 2 1 2 0 1 1 2 3 1 2-1 3 6h3v-6c2 0 2 0 3-2-1-3-3 0-3-2v-90l2-2c-3-9 1-12-4-15-3 1-3 3-3 6 0 5 1 5-1 9z" class="fil1"/><path id="path20" d="M149 2030h2l1 6c4 1 3-2 3-5 1-3 3 0 3-3-1-2-1-1-3-2v-90l2-1c0-3-1-1-1-8 0-11-5-10-5-2 0 5 0 5-1 9 2 3 2-1 2 10v82c-1 1-2 1-3 2v2z" class="fil1"/><path id="path22" d="M167 1985c7 1 7 14-1 16v4c4-1 8-4 9-7 4-7 0-9 0-13h-3c-1-1-1-2-1-3l-3-1c-5-2-6 2-7-1-1 2-2 4-1 6l2 1c3-3 0-6 5-6v4z" class="fil1 str1" stroke-width=".9"/><path id="path24" d="M166 2001c8-2 8-15 1-16l-1 16z" class="fil1 str1" stroke-width=".9"/><path id="path26" d="M175 1982c3 1 4 6 4 9 0 5-2 8-3 12 2-1 3-1 4-4 0 2 0 4 1 5v-4c0-3-2-17-1-19 0-1 0-2-2-3 0-1-1-2-2-3 1 3 0 4-1 7z" class="fil1 str1" stroke-width=".9"/><path id="path28" d="M161 1980c1 3 2-1 7 1l3 1c-1-5-4-8 3-8-2-2-4-2-7-2 0 7 1 4-5 5l-1 3z" class="fil1 str1" stroke-width=".9"/></g></symbol><symbol id="bus-to-sea"><g transform="matrix(.49957 0 0 .494 -213.98 -936.315)" id="Слой_x0020_1"><path id="path12" d="M482 1998l-1 4c-1 0 0 1-1-1-2-5-1-19 9-22-2-2-7-2-11-3-6 0-7 1-11 2 2-7 10-10 18-8 3 0 4 1 7 2-1-2-5-6-7-6-3-1-7 0-9 2 2-4 7-8 13-9s10 4 12 9c2-1 4-2 7-3 2-1 5-2 8-1 6 1 7 6 9 11-1 2 0 1-2 0-5-3-14-3-17 2 7 0 12 2 14 6l39-5c-4-11-11-21-20-27-4-3-7-5-12-6-9-4-19-5-29-3-39 9-54 55-31 84 4-3 5-5 8-10 3-4 5-8 9-1s5 18 16 18l-3-26c-1-3-2-20-3-22-3 1-5 3-7 5s-4 4-5 8zm30-12c-3-2-6-3-10-2v7l10-5z" class="fil1"/><path id="path14" d="M571 2040c1-6 2-8 8-8 1 2 2 5 2 8 0-4-1-4-5-5l-2 2c-2 1-2 3-2 2 0 0-1 0-1 1zm-26 1c4-1 5-2 1-4-2 1-2 1-1 4zm-2 1v-4c-1 0 1-1-2 0-2 0-4 3 2 4zm-6 1c1-3 2-2 0-5-2 1-3 0-3 2 0 3 1 2 3 3zm-22 16c3 1 8 1 11 0-1-3 0-2-4-2-2 0-4 0-6-1-1 2-1-2-1 3zm-24-46c7 0 2-8 7-13h5l-2 34 4-34v-5c-5 1-9 2-12 5-2 3-3 10-2 13zm117 30l8-1c-2 5-3 1-4 4 2 3 3 2 7 2 4-8 1-7 7-8 10-3 8-10 7-21l-25-1v25zm-57-3c1-10 1-20 2-29 0-8-1-21 5-24 3 6 4 38 3 46-3 2-5 5-10 7zm70-45l8 1 3 16-9-1-2-16zm-11-3l10 2 2 18-10-1-2-19zm0 9c0 3 1 6 1 10l-12-1-3-21c2 1 11 2 12 3v1l2 8zm-22-14c1 1 3 1 4 1s1 0 2 1l3 21-15-1-2-23c3 0 5 1 8 1zm-7 22c-4 0-7 1-10 1-3 1-5 3-7 3l-2-27c5-1 11-1 17 0l2 23zm-71 34l-10-2c-1 4 0 8 1 11 5 2 29 3 36 4 13 1 13 0 26-3 9-2 6-1 8 0-2 1-3 1-5 2 1 5 5 5 10 4 2-2 2-4 3-8 2 0 2 0 3-1l1-1h1c1-1 3-1 6-2 4-1 8-1 13-2l-1-27c-8-1-15-1-23 2s-10 6-15 11v-14c7-7 21-6 32-5 12 1 25 1 37 2-1-6-1-15-4-19-6-4-34-6-39-10-5 0-15-2-21-3-8 0-15 0-23 1-13 0-34 0-39 10 11-2 21-3 33-3 14 0 11 1 10 23l-1 26c0 3-1 3-5 3-11 1-23 2-34 1z" class="fil1"/></g></symbol><symbol id="new-year-tour"><g transform="matrix(.48618 0 0 .49313 -553.401 -933.084)" id="Слой_x0020_1"><g id="_464684944"><path id="path13" d="M1262 2038c-6 3-14 1-10-7 2-4 13-7 10 7zm-52 0c-2-12 5-12 11-8 1 10-3 12-11 8zm32-42c1 14-9 12-11 7-4-10 7-9 11-7zm-42 0h13c-2 6-6 9-10 13-6 6-8 5-11 12h13l-27 29c34 2 81 1 116 1l-27-29 14-1c-4-7-12-12-17-18-3-3-3-3-5-7h14c-7-14-24-24-36-25-5 0-20 6-24 8-2 2-12 13-13 17z" class="fil1"/><path id="polygon15" class="fil2" d="M1281 2051v-31h32v5h-14v26z"/><path id="path17" d="M1294 2010c-2-9-9-3-4 0h4zm6 0c2 0 9 0 6-4-4-3-6 2-6 4zm7 2l7 1v5h-34v-5h7s-6-7 1-10c5-2 7 2 9 5l1-2c6-8 15-2 9 6z" class="fil1"/><path id="polygon19" class="fil1" d="M1316 2037v-10l12-1v11z"/><path id="polygon21" class="fil2" d="M1301 2037l-1-10h13v10z"/><path id="polygon23" class="fil2" d="M1300 2051v-11h13v11z"/><path id="polygon25" class="fil2" d="M1316 2051v-10l12-1v11z"/><path id="path27" d="M1218 1949l8 9c-3 6-5 7-7 13 25-5 9-6 34 0l-7-13 9-9c-9-5-10 2-16-9l-4-6c-6 18-5 8-17 15z" class="fil1"/><path id="path29" d="M1184 1996c-1 14 10 12 12 7 3-10-8-11-12-7z" class="fil3"/><path id="path31" d="M1181 2035h9c8-15-16-17-9 0z" class="fil4"/></g></g></symbol><symbol id="bus-to-lake"><g transform="matrix(.50172 0 0 .49616 -395.258 -940.634)" id="Слой_x0020_1"><g id="_465353696"><path id="path13" d="M873 2044c0-3 3-5 5-5 2 5 2 4 0 9h-4c0-1-2 1-1-4zm22 4c-3-4-2-6 0-9 6 3 8 10 0 9zm-39-8c0-5 1-6 6-8 0 7 0 13-6 8zm63-3c-2 2-3 2-6 2-2-3-2-3-2-8 5 0 8 1 8 6zm-36-1c-4-6 0-8 2-9 0 0 4 0 3 6-1 3-2 3-5 3zm16-12c6 0 8 3 6 8h-3c-3-2-3-3-3-8zm29 2c-4-1-5-3-5-7 5-1 6 0 8 3-1 5 1 2-3 4zm-91 8c4 3 7 13 24 19 21 8 52 2 66-13 17-17 10-17 15-28 5 9-8 43-41 51-29 7-59-7-64-29zm15 27c9 6 18 11 33 12 36 2 68-29 61-68l-113 25 4 13c3 8 11 16 15 18zm-20-34z" class="fil1"/><path id="path15" d="M939 1956c0 1 0 0-1 1l-1 3c-2 5-11 23-12 25l1 1-15 31c2 1 3-2 4 0 1-1 11-24 12-26 1-1 1-3 2-4 1-3 6-13 8-16 1-3 6-14 8-16 0-1 1-5 1-6-2 1-7 6-7 7z" class="fil1 str1" stroke-width=".9"/><path id="path17" d="M931 1988l4 2c0-2 6-13 7-14l2-16c-2 4-4 10-6 14-2 3-6 12-7 14z" class="fil1 str1" stroke-width=".9"/><path id="path19" d="M943 1993c1 1 3 2 4 1 2-1 6-14 9-17l-2-6c-1 2-11 21-11 22z" class="fil1 str1" stroke-width=".9"/><path id="path21" d="M907 1975c2 1 3 2 5 3 0-3 4-9 5-11s5-9 5-11l-6 2v1l-2 4c-2 2-5 10-7 12z" class="fil1 str1" stroke-width=".9"/><path id="path23" d="M924 1971c0 2-4 9-5 11l4 2c1-2 5-9 6-12l6-12c-2 1-4 4-6 5-1 1-1 2-2 3l-3 3z" class="fil1 str1" stroke-width=".9"/><path id="path25" d="M914 1978l11-12v-1-1c1-2 5-9 6-11l-6 2-11 23z" class="fil1 str1" stroke-width=".9"/><path id="path27" d="M945 1973l-2 15 10-21-2-5c-1 1-3 6-4 8l-2 3c0-1 0 0 0 0z" class="fil1 str1" stroke-width=".9"/><path id="path29" d="M929 1987l2 1c1-2 5-11 7-14 2-4 4-10 6-14 1-2 1-3 1-5-2 2-7 13-8 16-2 3-7 13-8 16z" class="fil1 str1" stroke-width=".9"/><path id="path31" d="M949 1995c1 1 3 1 5 2 0-2 1-4 2-6l2-2c0-2 0-2 1-3l-2-6c-2 3-6 13-8 15z" class="fil1 str1" stroke-width=".9"/><path id="path33" d="M902 1971l2 2h1c1 1 0 1 1 1 1-2 7-13 7-15l-6 2v1l-2 4c-1 2-2 3-3 5z" class="fil1 str1" stroke-width=".9"/><path id="path35" d="M935 1960l-6 12c-1 3-5 10-6 12l2 1c1-2 10-20 12-25l1-3c1-1 1 0 1-1-2 1-3 2-4 4z" class="fil1 str1" stroke-width=".9"/><path id="path37" d="M912 1978l1 1 1-1 11-23-3 1c0 2-4 9-5 11s-5 8-5 11z" class="fil1 str1" stroke-width=".9"/><path id="path39" d="M964 1994c1 1 1 2 1 3 1 1 1 2 1 2l1 1 5-10c-1-2-2-3-3-4v-1c-2 3-3 7-5 9z" class="fil1 str1" stroke-width=".9"/><path id="path41" d="M892 1963c0 1-1 0 0 1l5-1 2-5c1-2 2-3 2-5h-2c-2 1-2 1-3 1l-1 1v1c-1 2-3 5-3 7z" class="fil1 str1" stroke-width=".9"/><path id="path43" d="M943 1988v5c0-1 10-20 11-22 0-1 0-2-1-4l-10 21z" class="fil1 str1" stroke-width=".9"/><path id="path45" d="M900 1962l6-2c0-2 3-6 3-8-2 0-4 0-5 1s-4 7-4 9z" class="fil1 str1" stroke-width=".9"/><path id="path47" d="M961 1985l2 6c1-1 2-2 3-4l2-4c-1-1-2-4-3-5l-3 7h-1z" class="fil1 str1" stroke-width=".9"/><path id="path49" d="M947 1994c1 2 0 1 2 1 2-2 6-12 8-15l-1-3c-3 3-7 16-9 17z" class="fil1 str1" stroke-width=".9"/><path id="polygon51" class="fil1 str1" stroke-width=".9" d="M929 1963l13-14-9 3z"/><path id="path53" d="M906 1974l1 1c2-2 5-10 7-12l2-4v-1l-3 1c0 2-6 13-7 15z" class="fil1 str1" stroke-width=".9"/><path id="path55" d="M956 1997v1h2c1 1 1 1 2 0l1-1v-1l1-1-2-7c-1 2-4 7-4 9z" class="fil1 str1" stroke-width=".9"/><path id="path57" d="M909 1959l5-2 1-2 1-1c1-1 1-2 1-3-2 0-4 0-6 1 0 2-2 5-2 7z" class="fil1 str1" stroke-width=".9"/><path id="path59" d="M958 1976l2 6c1-1 3-4 3-6s-1-3-2-5c-1 1-1 2-1 3l-1 2h-1z" class="fil1 str1" stroke-width=".9"/><path id="path61" d="M944 1945l2 2h2l3-4v-1c-1-2-3-2-5-2 0 1 0 2-1 3 0 1 0 1-1 2z" class="fil1 str1" stroke-width=".9"/><path id="path63" d="M969 2001c2 0 3 0 5-1l1-1v-1c0-1 0 0 1-1-1-2-2-3-3-5-1 1-4 7-4 9z" class="fil1 str1" stroke-width=".9"/><path id="path65" d="M896 1967c1 1 3 3 4 3 1-1 4-7 4-8l-6 2v1l-2 2z" class="fil1 str1" stroke-width=".9"/><path id="path67" d="M935 1990l2 1c2-3 3-7 5-10v-5c-1 1-7 12-7 14z" class="fil1 str1" stroke-width=".9"/><path id="path69" d="M925 1966c1-1 2-2 4-3l4-11-2 1c-1 2-5 9-6 11v2z" class="fil1 str1" stroke-width=".9"/><path id="path71" d="M946 1967l4-8-2-7c-1 2-1 5-1 7-1 3-1 6-1 8z" class="fil1 str1" stroke-width=".9"/><path id="path73" d="M890 1961c1-1 1-2 2-3 0-2 1-2 2-4l-8 1c0 1 3 5 4 6z" class="fil1 str1" stroke-width=".9"/><path id="path75" d="M946 1967c-1 2-1 4-1 6 0 0 0-1 0 0l2-3c1-2 3-7 4-8l-1-3-4 8z" class="fil1 str1" stroke-width=".9"/><path id="path77" d="M918 1956l5-2 1-2c0-1 1-1 1-2h-6c0 2-2 4-1 6z" class="fil1 str1" stroke-width=".9"/><path id="path79" d="M954 1997c1 1 0 0 2 0 0-2 3-7 4-9l-1-2c-1 1-1 1-1 3l-2 2c-1 2-2 4-2 6z" class="fil1 str1" stroke-width=".9"/><path id="path81" d="M937 1991c1 0 2 1 3 1l2-11c-2 3-3 7-5 10z" class="fil1 str1" stroke-width=".9"/><path id="path83" d="M920 1974l-3 7 2 1c1-2 5-9 5-11-1 1-3 2-4 3z" class="fil1 str1" stroke-width=".9"/><path id="path85" d="M955 1968l2 6c2-1 2-3 3-4-1-3-2-4-3-6-1 1-1 2-2 4z" class="fil1 str1" stroke-width=".9"/><path id="path87" d="M897 1963l3-1c0-2 3-8 4-9-1-1 0-1-3 0 0 2-1 3-2 5l-2 5z" class="fil1 str1" stroke-width=".9"/><path id="path89" d="M900 1970c2 1 0 1 2 1 1-2 2-3 3-5l2-4v-1l-3 1c0 1-3 7-4 8z" class="fil1 str1" stroke-width=".9"/><path id="path91" d="M963 1991l1 3c2-2 3-6 5-9l-1-2-2 4c-1 2-2 3-3 4z" class="fil1 str1" stroke-width=".9"/><path id="path93" d="M967 2000c1 1 1 1 2 1 0-2 3-8 4-9-1-1-1-1-1-2l-5 10z" class="fil1 str1" stroke-width=".9"/><path id="path95" d="M890 1961s0 1 1 1c1 1-1 0 1 1 0-2 2-5 3-7v-1l1-1h-2c-1 2-2 2-2 4-1 1-1 2-2 3z" class="fil1 str1" stroke-width=".9"/><path id="path97" d="M906 1960l3-1c0-2 2-5 2-7h-2c0 2-3 6-3 8z" class="fil1 str1" stroke-width=".9"/><path id="path99" d="M954 1965c2-1 1-1 2-3-1-1-4-7-5-8l3 11z" class="fil1 str1" stroke-width=".9"/><path id="path101" d="M960 1982l1 3h1l3-7s0-1-1-1c-1-1 1 0-1-1 0 2-2 5-3 6z" class="fil1 str1" stroke-width=".9"/><path id="path103" d="M926 1952l12-4c-2 0-9 1-10 1 0 0-1 0 0 1h-1v1l-1 1z" class="fil1 str1" stroke-width=".9"/><path id="path105" d="M948 1947c1 1 1 1 2 1 2-1 2-3 1-6v1l-3 4z" class="fil1 str1" stroke-width=".9"/><path id="path107" d="M917 1981l3-7c-1 1-1 2-2 3-2 1-2 2-3 3l2 1z" class="fil1 str1" stroke-width=".9"/><path id="path109" d="M914 1957l4-1c-1-2 1-4 1-6-1 1-1 1-2 1 0 1 0 2-1 3l-1 1-1 2z" class="fil1 str1" stroke-width=".9"/><path id="path111" d="M960 1998c1 1 0 1 2 2h2l-2-5-1 1v1l-1 1z" class="fil1 str1" stroke-width=".9"/><path id="path113" d="M957 1974l1 2h1l1-2c0-1 0-2 1-3v-1h-1c-1 1-1 3-3 4z" class="fil1 str1" stroke-width=".9"/><path id="path115" d="M923 1954l2-1c2-1 0 0 1-1l1-1v-1h1c-1-1 0-1 0-1-2 0-2 0-3 1 0 1-1 1-1 2l-1 2z" class="fil1 str1" stroke-width=".9"/><path id="path117" d="M974 2000c1 1 0 0 2 1 0 0 1-1 2 0-1-2-1-3-2-4-1 1-1 0-1 1v1l-1 1z" class="fil1 str1" stroke-width=".9"/><path id="path119" d="M944 1945c1-1 1-1 1-2 1-1 1-2 1-3-2 1-3 3-3 5 1 1 1 0 1 0z" class="fil1 str1" stroke-width=".9"/><path id="path121" d="M954 1965l1 3c1-2 1-3 2-4-1-1 0 0-1-2-1 2 0 2-2 3z" class="fil1 str1" stroke-width=".9"/><path id="path123" d="M896 1967l2-2v-1l-4 1c1 2 1 2 2 2z" class="fil1 str1" stroke-width=".9"/><g id="g125"><path id="path127" d="M866 2013l9 9c1 1 0 1 1 1 0 0 0 1 1 1l1 3c0 1 1 4 1 5-2-2-7-9-10-10l-2-7s0-1-1-2z" class="fil1 str1" stroke-width=".9"/><path id="path129" d="M871 2010c1 1 1 0 1 1v1l2 3c0 2 1 3 1 5l-10-11-1-1v-1c-1-1-1-2-1-3l-2-4c3 2 7 9 10 10z" class="fil1 str1" stroke-width=".9"/><path id="path131" d="M867 1998l1 1c0 1 1 3 1 5-1 0 1-1 0 0 1 1 1 2 1 3-2-2-8-9-10-10-1-2-2-4-2-5 1 0 2 0 2-1l7 7z" class="fil1 str1" stroke-width=".9"/><path id="path133" d="M835 1973l4 4c2 2 4 3 5 5-2 0-3-1-4-1l-4-2-1-1-1-1c-1-1-2-1-2-2l-4-4c0-1-1-1 3 0l3 1h1v1z" class="fil1 str1" stroke-width=".9"/><path id="path135" d="M846 1976l7 7-1 1c-2 0-5-1-6-1v-1c0-1-6-6-8-9 1 0 7 2 8 3z" class="fil1 str1" stroke-width=".9"/><path id="path137" d="M870 2007c1 1 1 2 1 3-3-1-7-8-10-10-1-1-1-2-1-3 2 1 8 8 10 10z" class="fil1 str1" stroke-width=".9"/><path id="path139" d="M875 2020c1 1 1 1 1 3-1 0 0 0-1-1s-6-5-8-9c-1 0-2-4-2-4l10 11z" class="fil1 str1" stroke-width=".9"/><path id="path141" d="M838 1973c2 3 8 8 8 9v1c-1-1-1-1-2-1-1-2-3-3-5-5l-4-4h3z" class="fil1 str1" stroke-width=".9"/><path id="path143" d="M836 1979c-1 0-2 0-3-1s-5-5-6-5v-2c1-1 0 1 1 0l4 4c0 1 1 1 2 2l1 1 1 1z" class="fil1 str1" stroke-width=".9"/><path id="path145" d="M833 1978c-2 0-5-1-7-1 0-2 1-3 1-4 1 0 5 4 6 5z" class="fil1 str1" stroke-width=".9"/><path id="path147" d="M849 1977l4 4v2l-7-7c1 0 2 0 3 1z" class="fil1 str1" stroke-width=".9"/><path id="path149" d="M866 1994v2c1 1 1 1 1 2l-7-7h2l4 3z" class="fil1 str1" stroke-width=".9"/><path id="path151" d="M857 1985l-1-1c0-2 0-2 1-4 2 1 1 1 3 2-1 1-1 2-2 2-1 1 0 1-1 1z" class="fil1 str1" stroke-width=".9"/><path id="path153" d="M853 1981l-4-4 6 1c0 2 0 1-1 2-1 2 0 1-1 1z" class="fil1 str1" stroke-width=".9"/><path id="path155" d="M860 1989l-1-2c0-1 1-2 3-3 0 1 1 2 1 4-1 0-2 0-3 1z" class="fil1 str1" stroke-width=".9"/><path id="path157" d="M866 1994l-4-3c1-1-1 0 1-1h1c1 2 1 3 2 4z" class="fil1 str1" stroke-width=".9"/><path id="path159" d="M857 1985l-1 1s-1 0-1 1l-1-1c0-2 1-1 1-2s0 0 1 0l1 1z" class="fil1 str1" stroke-width=".9"/><path id="path161" d="M860 1989h-2v-1c0-1 0-1 1-1l1 2z" class="fil1 str1" stroke-width=".9"/><path id="path163" d="M858 1989c-1 1 0 1-1 1v-1l1-1v1z" class="fil1 str1" stroke-width=".9"/></g></g></g></symbol></svg>